<svg width="306" height="312" viewBox="0 0 306 312" fill="none" xmlns="http://www.w3.org/2000/svg">
<path opacity="0.84" fill-rule="evenodd" clip-rule="evenodd" d="M154 218.499C190.96 218.499 220.922 219.554 220.922 220.855C220.922 222.157 190.96 223.212 154 223.212C117.039 223.212 87.0771 222.157 87.0771 220.855C87.0771 219.554 117.039 218.499 154 218.499Z" fill="#E6E7E8"/>
<path d="M305.499 275.856H284.553C279.163 275.856 274.705 274.065 271.177 270.484C267.65 266.902 265.887 262.381 265.887 256.918C265.887 251.492 267.633 247.114 271.123 243.786C274.614 240.459 279.091 238.795 284.553 238.795H305.499V245.252H284.553C281.008 245.252 278.087 246.391 275.79 248.67C273.493 250.949 272.344 253.88 272.344 257.461C272.344 261.007 273.492 263.883 275.79 266.089C278.087 268.296 281.008 269.399 284.553 269.399H305.499V275.856ZM258.018 275.856H251.561V238.795H258.018V275.856ZM246.135 245.251H231.538V275.856H225.135V245.251H210.485V238.794H246.135V245.251ZM207.12 264.406C207.12 267.915 205.873 270.737 203.377 272.872C200.989 274.861 198.005 275.856 194.423 275.856H166.153V269.398H194.423C196.196 269.398 197.733 269.001 199.036 268.205C200.519 267.228 201.26 265.908 201.26 264.244C201.26 262.58 200.501 261.295 198.981 260.391C197.715 259.631 196.196 259.252 194.423 259.252H176.951C173.731 259.252 171.036 258.365 168.866 256.593C166.551 254.676 165.393 252.143 165.393 248.996C165.393 245.885 166.551 243.371 168.866 241.453C171.036 239.68 173.731 238.795 176.951 238.795H204.896V245.252H176.951C175.721 245.252 174.672 245.595 173.804 246.283C172.936 246.97 172.501 247.893 172.501 249.05C172.501 250.244 172.935 251.166 173.804 251.818C174.672 252.469 175.721 252.794 176.951 252.794H194.423C198.005 252.794 200.989 253.825 203.377 255.887C205.873 258.058 207.12 260.898 207.12 264.406ZM158.718 275.856H152.261V238.795H158.718V275.856ZM146.835 245.251H132.238V275.856H125.835V245.251H111.184V238.794H146.835V245.251ZM120.897 275.856L112.595 275.802L106.355 265.438H88.7735L92.6805 259.035H102.502L96.0447 248.345L79.3321 275.802H71.0295L91.1609 242.321C91.6672 241.453 92.3725 240.657 93.2769 239.934C94.3622 239.102 95.339 238.686 96.2071 238.686C97.1477 238.686 98.1245 239.083 99.137 239.879C100.005 240.567 100.71 241.381 101.253 242.321L120.897 275.856ZM80.7424 245.251H66.1457V275.856H59.7428V245.251H45.0919V238.794H80.7424V245.251ZM41.7277 264.406C41.7277 267.915 40.4795 270.737 37.9836 272.872C35.5962 274.861 32.6116 275.856 29.0303 275.856H0.759614V269.398H29.0303C30.8029 269.398 32.3402 269.001 33.6427 268.205C35.1257 267.228 35.8676 265.908 35.8676 264.244C35.8676 262.58 35.108 261.295 33.5884 260.391C32.3221 259.631 30.8029 259.252 29.0303 259.252H11.5578C8.33798 259.252 5.64296 258.365 3.47272 256.593C1.15772 254.676 0 252.143 0 248.996C0 245.885 1.1573 243.371 3.47272 241.453C5.64338 239.68 8.3384 238.795 11.5578 238.795H39.5028V245.252H11.5578C10.3277 245.252 9.27896 245.595 8.41078 246.283C7.54261 246.97 7.10831 247.893 7.10831 249.05C7.10831 250.244 7.54261 251.166 8.41078 251.818C9.27896 252.469 10.3281 252.794 11.5578 252.794H29.0303C32.6116 252.794 35.5962 253.825 37.9836 255.887C40.4795 258.058 41.7277 260.898 41.7277 264.406Z" fill="white"/>
<path fill-rule="evenodd" clip-rule="evenodd" d="M89.5118 41.5518C68.7677 42.7861 52.8829 50.0358 45.9639 63.3636C30.3851 93.3736 66.1336 142.827 125.795 173.799C185.455 204.77 246.473 205.55 262.051 175.539C269.505 161.181 265.208 142.372 252.164 123.266C253.8 131.264 259.462 142.894 251.979 158.945C238.194 185.499 184.204 184.809 131.414 157.404C78.624 130 46.992 86.2414 60.7764 59.6876C65.757 50.0939 75.9879 44.0579 89.5118 41.5518Z" fill="#422AFB"/>
<path fill-rule="evenodd" clip-rule="evenodd" d="M218.764 37.1053C236.767 38.1767 257.078 44.1231 266.001 61.3116C276.252 81.0592 265.838 104.394 253.956 120.831C236.714 144.682 210.183 164.3 184.268 177.752C158.354 191.205 127.043 201.615 97.6138 201.992C77.3334 202.251 52.2577 197.34 42.0057 177.592C41.2474 176.131 40.59 174.619 40.0392 173.067C31.4226 148.811 49.5908 121.317 65.3687 104.38L68.2708 101.265L74.7571 106.782L72.1483 110.146C62.8441 122.145 52.0687 141.643 59.985 156.893C67.3786 171.136 87.2575 174.139 101.63 173.956C126.323 173.64 152.81 164.734 174.544 153.451C196.278 142.169 218.803 125.632 233.271 105.618C241.69 93.9712 250.672 75.9793 243.28 61.7404C238.34 52.2229 227.717 47.7911 217.687 45.9323L213.57 45.1693L214.584 36.857L218.764 37.1053Z" fill="#3D24DE"/>
<path fill-rule="evenodd" clip-rule="evenodd" d="M218.499 41.5518C239.243 42.7861 255.128 50.0358 262.047 63.3636C277.626 93.3736 241.877 142.827 182.216 173.799C122.555 204.77 61.5384 205.55 45.9595 175.539C36.4424 157.206 46.0837 131.616 68.6281 107.416C54.1439 126.096 48.7513 144.92 56.0317 158.945C69.8166 185.5 123.807 184.809 176.597 157.405C229.387 130 261.019 86.2414 247.234 59.6876C242.254 50.0939 232.023 44.0579 218.499 41.5518Z" fill="#422AFB"/>
<path fill-rule="evenodd" clip-rule="evenodd" d="M189.216 145.068V19.2152C189.216 15.6802 192.075 12.8047 195.618 12.8047H208.424C211.959 12.8047 214.826 15.6802 214.826 19.2152V125.888C206.911 133.028 198.166 139.463 189.216 145.068Z" fill="#99A5FF"/>
<path fill-rule="evenodd" clip-rule="evenodd" d="M214.826 19.4787V125.888C212.067 128.376 209.207 130.779 206.273 133.091L214.826 19.4787Z" fill="#422AFB"/>
<path fill-rule="evenodd" clip-rule="evenodd" d="M157.201 161.474V51.2243C157.201 47.6893 160.06 44.8301 163.604 44.8301L176.419 44.8322C179.954 44.8322 182.813 47.6913 182.813 51.2268V148.92C180.056 150.512 177.294 152.023 174.545 153.451C169.034 156.312 163.217 159.02 157.201 161.474Z" fill="#99A5FF"/>
<path fill-rule="evenodd" clip-rule="evenodd" d="M182.813 51.2268V148.92C180.057 150.512 177.295 152.024 174.545 153.451L174.015 153.725L182.813 51.2268Z" fill="#422AFB"/>
<path fill-rule="evenodd" clip-rule="evenodd" d="M125.197 148.92V6.41055C125.197 2.87513 128.056 0 131.591 0H144.405C147.948 0 150.807 2.87513 150.807 6.41055V161.473C144.792 159.019 138.976 156.311 133.466 153.451C130.716 152.024 127.954 150.512 125.197 148.92Z" fill="#BFC8FF"/>
<path fill-rule="evenodd" clip-rule="evenodd" d="M150.808 7.11542V161.473C148.066 160.354 145.366 159.183 142.717 157.969L150.808 7.11542Z" fill="#422AFB"/>
<path fill-rule="evenodd" clip-rule="evenodd" d="M93.1865 125.888V32.0275C93.1865 28.4917 96.0453 25.617 99.5807 25.617H112.394C115.937 25.617 118.796 28.4921 118.796 32.0275V145.068C109.846 139.463 101.101 133.028 93.1865 125.888Z" fill="#DCE2FF"/>
<path fill-rule="evenodd" clip-rule="evenodd" d="M118.795 32.0275V145.068C116.172 143.425 113.566 141.711 110.994 139.929L118.795 32.0275Z" fill="#422AFB"/>
<path d="M50.7278 307.5V291.4H57.3288C59.4755 291.4 61.1545 291.906 62.3658 292.918C63.5925 293.93 64.2058 295.333 64.2058 297.127C64.2058 298.308 63.9298 299.327 63.3778 300.186C62.8258 301.029 62.0362 301.681 61.0088 302.141C59.9968 302.586 58.7778 302.808 57.3518 302.808H52.3838L53.7178 301.451V307.5H50.7278ZM61.2618 307.5L57.1908 301.658H60.3878L64.4818 307.5H61.2618ZM53.7178 301.773L52.3838 300.347H57.2138C58.5325 300.347 59.5215 300.063 60.1808 299.496C60.8555 298.929 61.1928 298.139 61.1928 297.127C61.1928 296.1 60.8555 295.31 60.1808 294.758C59.5215 294.206 58.5325 293.93 57.2138 293.93H52.3838L53.7178 292.458V301.773ZM66.8611 307.5V291.4H73.8991C75.6471 291.4 77.1804 291.737 78.4991 292.412C79.8177 293.087 80.8451 294.022 81.5811 295.218C82.3171 296.414 82.6851 297.825 82.6851 299.45C82.6851 301.06 82.3171 302.471 81.5811 303.682C80.8451 304.878 79.8177 305.813 78.4991 306.488C77.1804 307.163 75.6471 307.5 73.8991 307.5H66.8611ZM69.8511 304.97H73.7611C74.9571 304.97 75.9997 304.74 76.8891 304.28C77.7784 303.82 78.4607 303.176 78.9361 302.348C79.4267 301.52 79.6721 300.554 79.6721 299.45C79.6721 298.331 79.4267 297.365 78.9361 296.552C78.4607 295.724 77.7784 295.08 76.8891 294.62C75.9997 294.16 74.9571 293.93 73.7611 293.93H69.8511V304.97ZM82.634 307.5L89.419 298.162V300.416L82.956 291.4H86.337L91.144 298.07L89.764 298.093L94.525 291.4H97.768L91.351 300.255V298.093L98.182 307.5H94.732L89.672 300.416H91.029L86.038 307.5H82.634ZM110.504 307.73C109.246 307.73 108.043 307.554 106.893 307.201C105.743 306.833 104.83 306.365 104.156 305.798L105.191 303.475C105.835 303.981 106.632 304.403 107.583 304.74C108.533 305.077 109.507 305.246 110.504 305.246C111.347 305.246 112.029 305.154 112.551 304.97C113.072 304.786 113.455 304.541 113.701 304.234C113.946 303.912 114.069 303.552 114.069 303.153C114.069 302.662 113.892 302.271 113.54 301.98C113.187 301.673 112.727 301.436 112.16 301.267C111.608 301.083 110.987 300.914 110.297 300.761C109.622 300.608 108.94 300.431 108.25 300.232C107.575 300.017 106.954 299.749 106.387 299.427C105.835 299.09 105.382 298.645 105.03 298.093C104.677 297.541 104.501 296.836 104.501 295.977C104.501 295.103 104.731 294.306 105.191 293.585C105.666 292.849 106.379 292.266 107.33 291.837C108.296 291.392 109.515 291.17 110.987 291.17C111.953 291.17 112.911 291.293 113.862 291.538C114.812 291.783 115.64 292.136 116.346 292.596L115.403 294.919C114.682 294.49 113.938 294.175 113.172 293.976C112.405 293.761 111.669 293.654 110.964 293.654C110.136 293.654 109.461 293.754 108.94 293.953C108.434 294.152 108.058 294.413 107.813 294.735C107.583 295.057 107.468 295.425 107.468 295.839C107.468 296.33 107.636 296.728 107.974 297.035C108.326 297.326 108.779 297.556 109.331 297.725C109.898 297.894 110.527 298.062 111.217 298.231C111.907 298.384 112.589 298.561 113.264 298.76C113.954 298.959 114.575 299.22 115.127 299.542C115.694 299.864 116.146 300.301 116.484 300.853C116.836 301.405 117.013 302.103 117.013 302.946C117.013 303.805 116.775 304.602 116.3 305.338C115.84 306.059 115.127 306.641 114.161 307.086C113.195 307.515 111.976 307.73 110.504 307.73ZM126.832 307.73C125.574 307.73 124.417 307.523 123.359 307.109C122.301 306.695 121.381 306.12 120.599 305.384C119.817 304.633 119.211 303.759 118.782 302.762C118.352 301.75 118.138 300.646 118.138 299.45C118.138 298.254 118.352 297.158 118.782 296.161C119.211 295.149 119.817 294.275 120.599 293.539C121.381 292.788 122.301 292.205 123.359 291.791C124.417 291.377 125.567 291.17 126.809 291.17C128.066 291.17 129.216 291.377 130.259 291.791C131.317 292.205 132.237 292.788 133.019 293.539C133.801 294.275 134.406 295.149 134.836 296.161C135.265 297.158 135.48 298.254 135.48 299.45C135.48 300.646 135.265 301.75 134.836 302.762C134.406 303.774 133.801 304.648 133.019 305.384C132.237 306.12 131.317 306.695 130.259 307.109C129.216 307.523 128.074 307.73 126.832 307.73ZM126.809 305.108C127.621 305.108 128.373 304.97 129.063 304.694C129.753 304.418 130.351 304.027 130.857 303.521C131.363 303 131.754 302.402 132.03 301.727C132.321 301.037 132.467 300.278 132.467 299.45C132.467 298.622 132.321 297.871 132.03 297.196C131.754 296.506 131.363 295.908 130.857 295.402C130.351 294.881 129.753 294.482 129.063 294.206C128.373 293.93 127.621 293.792 126.809 293.792C125.996 293.792 125.245 293.93 124.555 294.206C123.88 294.482 123.282 294.881 122.761 295.402C122.255 295.908 121.856 296.506 121.565 297.196C121.289 297.871 121.151 298.622 121.151 299.45C121.151 300.263 121.289 301.014 121.565 301.704C121.856 302.394 122.255 303 122.761 303.521C123.267 304.027 123.865 304.418 124.555 304.694C125.245 304.97 125.996 305.108 126.809 305.108ZM145.411 307.73C144.184 307.73 143.042 307.531 141.984 307.132C140.941 306.718 140.029 306.143 139.247 305.407C138.48 304.656 137.882 303.774 137.453 302.762C137.024 301.75 136.809 300.646 136.809 299.45C136.809 298.254 137.024 297.15 137.453 296.138C137.882 295.126 138.488 294.252 139.27 293.516C140.052 292.765 140.964 292.19 142.007 291.791C143.05 291.377 144.192 291.17 145.434 291.17C146.753 291.17 147.956 291.4 149.045 291.86C150.134 292.305 151.054 292.972 151.805 293.861L149.873 295.678C149.29 295.049 148.639 294.582 147.918 294.275C147.197 293.953 146.415 293.792 145.572 293.792C144.729 293.792 143.954 293.93 143.249 294.206C142.559 294.482 141.953 294.873 141.432 295.379C140.926 295.885 140.527 296.483 140.236 297.173C139.96 297.863 139.822 298.622 139.822 299.45C139.822 300.278 139.96 301.037 140.236 301.727C140.527 302.417 140.926 303.015 141.432 303.521C141.953 304.027 142.559 304.418 143.249 304.694C143.954 304.97 144.729 305.108 145.572 305.108C146.415 305.108 147.197 304.955 147.918 304.648C148.639 304.326 149.29 303.843 149.873 303.199L151.805 305.039C151.054 305.913 150.134 306.58 149.045 307.04C147.956 307.5 146.745 307.73 145.411 307.73ZM153.778 307.5V291.4H156.768V307.5H153.778ZM158.155 307.5L165.4 291.4H168.344L175.612 307.5H172.484L166.251 292.987H167.447L161.237 307.5H158.155ZM161.49 303.774L162.295 301.428H170.989L171.794 303.774H161.49ZM176.97 307.5V291.4H179.96V304.97H188.378V307.5H176.97ZM195.715 307.5V291.4H202.753C204.501 291.4 206.034 291.737 207.353 292.412C208.672 293.087 209.699 294.022 210.435 295.218C211.171 296.414 211.539 297.825 211.539 299.45C211.539 301.06 211.171 302.471 210.435 303.682C209.699 304.878 208.672 305.813 207.353 306.488C206.034 307.163 204.501 307.5 202.753 307.5H195.715ZM198.705 304.97H202.615C203.811 304.97 204.854 304.74 205.743 304.28C206.632 303.82 207.315 303.176 207.79 302.348C208.281 301.52 208.526 300.554 208.526 299.45C208.526 298.331 208.281 297.365 207.79 296.552C207.315 295.724 206.632 295.08 205.743 294.62C204.854 294.16 203.811 293.93 202.615 293.93H198.705V304.97ZM211.525 307.5L218.77 291.4H221.714L228.982 307.5H225.854L219.621 292.987H220.817L214.607 307.5H211.525ZM214.86 303.774L215.665 301.428H224.359L225.164 303.774H214.86ZM232.797 307.5V293.93H227.461V291.4H241.123V293.93H235.787V307.5H232.797ZM239.592 307.5L246.837 291.4H249.781L257.049 307.5H253.921L247.688 292.987H248.884L242.674 307.5H239.592ZM242.927 303.774L243.732 301.428H252.426L253.231 303.774H242.927Z" fill="white"/>
</svg>
